<svg xmlns="http://www.w3.org/2000/svg" viewBox="0 0 192 192">
  <defs>
    <radialGradient id="g" cx="40%" cy="35%" r="50%">
      <stop offset="0%" stop-color="#c77dba"/>
      <stop offset="50%" stop-color="#a8479e"/>
      <stop offset="100%" stop-color="#6a1b6a"/>
    </radialGradient>
  </defs>
  <circle cx="96" cy="96" r="88" fill="url(#g)"/>
  <!-- Yarn wrap lines -->
  <g stroke="rgba(255,255,255,0.15)" stroke-width="3" fill="none">
    <ellipse cx="96" cy="96" rx="80" ry="40" transform="rotate(-25 96 96)"/>
    <ellipse cx="96" cy="96" rx="75" ry="38" transform="rotate(30 96 96)"/>
    <ellipse cx="96" cy="96" rx="70" ry="35" transform="rotate(-60 96 96)"/>
    <ellipse cx="96" cy="96" rx="82" ry="42" transform="rotate(70 96 96)"/>
    <ellipse cx="96" cy="96" rx="65" ry="30" transform="rotate(10 96 96)"/>
    <ellipse cx="96" cy="96" rx="78" ry="36" transform="rotate(-45 96 96)"/>
    <ellipse cx="96" cy="96" rx="72" ry="34" transform="rotate(50 96 96)"/>
  </g>
  <!-- Shine -->
  <ellipse cx="72" cy="68" rx="18" ry="12" fill="rgba(255,255,255,0.2)" transform="rotate(-20 72 68)"/>
</svg>
